<?xml version="1.0" encoding="utf-8"?>
<!-- Generator: Adobe Illustrator 16.0.0, SVG Export Plug-In . SVG Version: 6.00 Build 0)  -->
<!DOCTYPE svg PUBLIC "-//W3C//DTD SVG 1.1//EN" "http://www.w3.org/Graphics/SVG/1.1/DTD/svg11.dtd">
<svg version="1.1" id="Layer_1" xmlns="http://www.w3.org/2000/svg" xmlns:xlink="http://www.w3.org/1999/xlink" x="0px" y="0px"
	 width="28px" height="168px" viewBox="0 0 28 168" enable-background="new 0 0 28 168" xml:space="preserve">
<g>
	<path fill="#CDCDCD" d="M5.184,1.996c-1.76,0-3.186,1.426-3.186,3.185s1.426,3.186,3.186,3.186c1.758,0,3.184-1.427,3.184-3.186
		C8.366,3.421,6.939,1.996,5.184,1.996z M5.184,7.385c-1.219,0-2.205-0.987-2.205-2.205s0.986-2.206,2.205-2.206
		c1.217,0,2.203,0.987,2.203,2.206C7.387,6.397,6.398,7.385,5.184,7.385z"/>
	<path fill="#CDCDCD" d="M14,1.996c-1.758,0-3.184,1.426-3.184,3.185S12.242,8.366,14,8.366c1.76,0,3.186-1.427,3.186-3.186
		C17.186,3.421,15.76,1.996,14,1.996z M14,7.385c-1.217,0-2.204-0.987-2.204-2.205S12.783,2.974,14,2.974s2.206,0.987,2.206,2.206
		C16.205,6.397,15.217,7.385,14,7.385z"/>
	<path fill="#CDCDCD" d="M22.818,1.996c-1.76,0-3.188,1.426-3.188,3.185s1.429,3.186,3.188,3.186c1.758,0,3.184-1.427,3.184-3.186
		C26.002,3.421,24.576,1.996,22.818,1.996z M22.818,7.385c-1.217,0-2.205-0.987-2.205-2.205s0.988-2.206,2.205-2.206
		s2.205,0.987,2.205,2.206C25.023,6.397,24.035,7.385,22.818,7.385z"/>
	<path fill="#CDCDCD" d="M5.184,10.813c-1.76,0-3.186,1.427-3.186,3.186c0,1.758,1.426,3.185,3.186,3.185
		c1.758,0,3.184-1.427,3.184-3.185C8.366,12.24,6.939,10.813,5.184,10.813z M5.184,16.203c-1.219,0-2.205-0.986-2.205-2.204
		s0.986-2.206,2.205-2.206c1.217,0,2.203,0.988,2.203,2.206S6.398,16.203,5.184,16.203z"/>
	<path fill="#CDCDCD" d="M14,10.813c-1.758,0-3.184,1.427-3.184,3.186c0,1.758,1.426,3.185,3.184,3.185
		c1.76,0,3.186-1.427,3.186-3.185C17.186,12.24,15.76,10.813,14,10.813z M14,16.203c-1.217,0-2.204-0.986-2.204-2.204
		s0.987-2.206,2.204-2.206s2.206,0.988,2.206,2.206S15.217,16.203,14,16.203z"/>
	<path fill="#CDCDCD" d="M22.818,10.813c-1.76,0-3.188,1.427-3.188,3.186c0,1.758,1.429,3.185,3.188,3.185
		c1.758,0,3.184-1.427,3.184-3.185C26.002,12.24,24.576,10.813,22.818,10.813z M22.818,16.203c-1.217,0-2.205-0.986-2.205-2.204
		s0.988-2.206,2.205-2.206s2.205,0.988,2.205,2.206S24.035,16.203,22.818,16.203z"/>
	<path fill="#CDCDCD" d="M5.184,19.633c-1.76,0-3.186,1.426-3.186,3.186c0,1.761,1.426,3.187,3.186,3.187
		c1.758,0,3.184-1.426,3.184-3.187C8.366,21.059,6.939,19.633,5.184,19.633z M5.184,25.021c-1.219,0-2.205-0.986-2.205-2.203
		c0-1.219,0.986-2.205,2.205-2.205c1.217,0,2.203,0.986,2.203,2.205C7.387,24.035,6.398,25.021,5.184,25.021z"/>
	<path fill="#CDCDCD" d="M14,19.633c-1.758,0-3.184,1.426-3.184,3.186c0,1.761,1.426,3.187,3.184,3.187
		c1.76,0,3.186-1.426,3.186-3.187C17.186,21.059,15.76,19.633,14,19.633z M14,25.021c-1.217,0-2.204-0.986-2.204-2.203
		c0-1.219,0.987-2.205,2.204-2.205s2.206,0.986,2.206,2.205C16.205,24.035,15.217,25.021,14,25.021z"/>
	<path fill="#CDCDCD" d="M22.818,19.633c-1.76,0-3.188,1.426-3.188,3.186c0,1.761,1.429,3.187,3.188,3.187
		c1.758,0,3.184-1.426,3.184-3.187C26.002,21.059,24.576,19.633,22.818,19.633z M22.818,25.021c-1.217,0-2.205-0.986-2.205-2.203
		c0-1.219,0.988-2.205,2.205-2.205s2.205,0.986,2.205,2.205C25.023,24.035,24.035,25.021,22.818,25.021z"/>
</g>
<g>
	<path fill="#0073AE" d="M5.184,29.996c-1.76,0-3.186,1.426-3.186,3.185s1.426,3.186,3.186,3.186c1.758,0,3.184-1.427,3.184-3.186
		C8.366,31.421,6.939,29.996,5.184,29.996z M5.184,35.385c-1.219,0-2.205-0.987-2.205-2.205s0.986-2.206,2.205-2.206
		c1.217,0,2.203,0.987,2.203,2.206C7.387,34.397,6.398,35.385,5.184,35.385z"/>
	<path fill="#0073AE" d="M14,29.996c-1.758,0-3.184,1.426-3.184,3.185s1.426,3.186,3.184,3.186c1.76,0,3.186-1.427,3.186-3.186
		C17.186,31.421,15.76,29.996,14,29.996z M14,35.385c-1.217,0-2.204-0.987-2.204-2.205s0.987-2.206,2.204-2.206
		s2.206,0.987,2.206,2.206C16.205,34.397,15.217,35.385,14,35.385z"/>
	<path fill="#0073AE" d="M22.818,29.996c-1.76,0-3.188,1.426-3.188,3.185s1.429,3.186,3.188,3.186c1.758,0,3.184-1.427,3.184-3.186
		C26.002,31.421,24.576,29.996,22.818,29.996z M22.818,35.385c-1.217,0-2.205-0.987-2.205-2.205s0.988-2.206,2.205-2.206
		s2.205,0.987,2.205,2.206C25.023,34.397,24.035,35.385,22.818,35.385z"/>
	<path fill="#0073AE" d="M5.184,38.813c-1.76,0-3.186,1.427-3.186,3.186c0,1.758,1.426,3.185,3.186,3.185
		c1.758,0,3.184-1.427,3.184-3.185C8.366,40.24,6.939,38.813,5.184,38.813z M5.184,44.203c-1.219,0-2.205-0.986-2.205-2.204
		s0.986-2.206,2.205-2.206c1.217,0,2.203,0.988,2.203,2.206S6.398,44.203,5.184,44.203z"/>
	<path fill="#0073AE" d="M14,38.813c-1.758,0-3.184,1.427-3.184,3.186c0,1.758,1.426,3.185,3.184,3.185
		c1.76,0,3.186-1.427,3.186-3.185C17.186,40.24,15.76,38.813,14,38.813z M14,44.203c-1.217,0-2.204-0.986-2.204-2.204
		s0.987-2.206,2.204-2.206s2.206,0.988,2.206,2.206S15.217,44.203,14,44.203z"/>
	<path fill="#0073AE" d="M22.818,38.813c-1.76,0-3.188,1.427-3.188,3.186c0,1.758,1.429,3.185,3.188,3.185
		c1.758,0,3.184-1.427,3.184-3.185C26.002,40.24,24.576,38.813,22.818,38.813z M22.818,44.203c-1.217,0-2.205-0.986-2.205-2.204
		s0.988-2.206,2.205-2.206s2.205,0.988,2.205,2.206S24.035,44.203,22.818,44.203z"/>
	<path fill="#0073AE" d="M5.184,47.633c-1.76,0-3.186,1.426-3.186,3.186c0,1.761,1.426,3.187,3.186,3.187
		c1.758,0,3.184-1.426,3.184-3.187C8.366,49.059,6.939,47.633,5.184,47.633z M5.184,53.021c-1.219,0-2.205-0.986-2.205-2.203
		c0-1.219,0.986-2.205,2.205-2.205c1.217,0,2.203,0.986,2.203,2.205C7.387,52.035,6.398,53.021,5.184,53.021z"/>
	<path fill="#0073AE" d="M14,47.633c-1.758,0-3.184,1.426-3.184,3.186c0,1.761,1.426,3.187,3.184,3.187
		c1.76,0,3.186-1.426,3.186-3.187C17.186,49.059,15.76,47.633,14,47.633z M14,53.021c-1.217,0-2.204-0.986-2.204-2.203
		c0-1.219,0.987-2.205,2.204-2.205s2.206,0.986,2.206,2.205C16.205,52.035,15.217,53.021,14,53.021z"/>
	<path fill="#0073AE" d="M22.818,47.633c-1.76,0-3.188,1.426-3.188,3.186c0,1.761,1.429,3.187,3.188,3.187
		c1.758,0,3.184-1.426,3.184-3.187C26.002,49.059,24.576,47.633,22.818,47.633z M22.818,53.021c-1.217,0-2.205-0.986-2.205-2.203
		c0-1.219,0.988-2.205,2.205-2.205s2.205,0.986,2.205,2.205C25.023,52.035,24.035,53.021,22.818,53.021z"/>
</g>
<g>
	<path fill="#CDCDCD" d="M18.788,59H9.264C8.587,59,8,59.596,8,60.288v4.488C8,65.468,8.587,66,9.264,66h9.524
		C19.467,66,20,65.468,20,64.774v-4.486C20,59.596,19.467,59,18.788,59z M19,64c0,0.553-0.447,1-1,1h-8c-0.553,0-1-0.447-1-1v-3
		c0-0.554,0.447-1,1-1h8c0.553,0,1,0.446,1,1V64z"/>
	<path fill="#CDCDCD" d="M6.773,73H1.253C0.578,73,0,73.564,0,74.259v3.489C0,78.439,0.578,79,1.254,79h5.521
		C7.452,79,8,78.439,8,77.748v-3.489C8,73.564,7.452,73,6.773,73z M7,77c0,0.553-0.447,1-1,1H2c-0.553,0-1-0.447-1-1v-2
		c0-0.553,0.447-1,1-1h4c0.553,0,1,0.447,1,1V77z"/>
	<path fill="#CDCDCD" d="M16.773,73h-5.521C10.578,73,10,73.564,10,74.259v3.489C10,78.439,10.578,79,11.254,79h5.521
		C17.452,79,18,78.439,18,77.748v-3.489C18,73.564,17.452,73,16.773,73z M17,77c0,0.553-0.447,1-1,1h-4c-0.553,0-1-0.447-1-1v-2
		c0-0.553,0.447-1,1-1h4c0.553,0,1,0.447,1,1V77z"/>
	<path fill="#CDCDCD" d="M26.773,73h-5.521C20.578,73,20,73.564,20,74.259v3.489C20,78.439,20.578,79,21.254,79h5.521
		C27.451,79,28,78.439,28,77.748v-3.489C28,73.564,27.451,73,26.773,73z M27.156,77c0,0.553-0.447,1-1,1h-4c-0.553,0-1-0.447-1-1v-2
		c0-0.553,0.447-1,1-1h4c0.553,0,1,0.447,1,1V77z"/>
	<polygon fill="#CDCDCD" points="23.5,68 14.5,68 14.5,66 13.5,66 13.5,68 4.5,68 3.5,68 3.5,69 3.5,73 4.5,73 4.5,69 13.5,69 
		13.5,73 14.5,73 14.5,69 23.5,69 23.5,73 24.5,73 24.5,69 24.5,68 	"/>
</g>
<g>
	<path fill="#0073AE" d="M18.788,87.167H9.264C8.587,87.167,8,87.763,8,88.455v4.488c0,0.691,0.587,1.224,1.264,1.224h9.524
		c0.679,0,1.212-0.532,1.212-1.226v-4.486C20,87.763,19.467,87.167,18.788,87.167z M19,92.167c0,0.553-0.447,1-1,1h-8
		c-0.553,0-1-0.447-1-1v-3c0-0.554,0.447-1,1-1h8c0.553,0,1,0.446,1,1V92.167z"/>
	<path fill="#0073AE" d="M6.773,101.167H1.253c-0.675,0-1.253,0.564-1.253,1.259v3.489c0,0.691,0.578,1.252,1.254,1.252h5.521
		c0.677,0,1.225-0.561,1.225-1.252v-3.489C8,101.731,7.452,101.167,6.773,101.167z M7,105.167c0,0.553-0.447,1-1,1H2
		c-0.553,0-1-0.447-1-1v-2c0-0.553,0.447-1,1-1h4c0.553,0,1,0.447,1,1V105.167z"/>
	<path fill="#0073AE" d="M16.773,101.167h-5.521c-0.674,0-1.252,0.564-1.252,1.259v3.489c0,0.691,0.578,1.252,1.254,1.252h5.521
		c0.677,0,1.225-0.561,1.225-1.252v-3.489C18,101.731,17.452,101.167,16.773,101.167z M17,105.167c0,0.553-0.447,1-1,1h-4
		c-0.553,0-1-0.447-1-1v-2c0-0.553,0.447-1,1-1h4c0.553,0,1,0.447,1,1V105.167z"/>
	<path fill="#0073AE" d="M26.773,101.167h-5.521c-0.674,0-1.252,0.564-1.252,1.259v3.489c0,0.691,0.578,1.252,1.254,1.252h5.521
		c0.676,0,1.225-0.561,1.225-1.252v-3.489C28,101.731,27.451,101.167,26.773,101.167z M27.156,105.167c0,0.553-0.447,1-1,1h-4
		c-0.553,0-1-0.447-1-1v-2c0-0.553,0.447-1,1-1h4c0.553,0,1,0.447,1,1V105.167z"/>
	<polygon fill="#0073AE" points="23.5,96.167 14.5,96.167 14.5,94.167 13.5,94.167 13.5,96.167 4.5,96.167 3.5,96.167 3.5,97.167 
		3.5,101.167 4.5,101.167 4.5,97.167 13.5,97.167 13.5,101.167 14.5,101.167 14.5,97.167 23.5,97.167 23.5,101.167 24.5,101.167 
		24.5,97.167 24.5,96.167 	"/>
</g>
<path fill="#CDCDCD" d="M22,124h-2v-4c0-3.312-2.688-6-6-6s-6,2.688-6,6v4H6c-1.104,0-2,0.896-2,2v10c0,1.104,0.896,2,2,2h16
	c1.104,0,2-0.896,2-2v-10C24,124.896,23.104,124,22,124z M9,120c0-2.762,2.238-5,5-5s5,2.238,5,5v4H9V120z M23,136
	c0,0.553-0.447,1-1,1H6c-0.553,0-1-0.447-1-1v-10c0-0.553,0.447-1,1-1h16c0.553,0,1,0.447,1,1V136z"/>
<path fill="#0073AE" d="M22,152h-2v-4c0-3.312-2.688-6-6-6s-6,2.688-6,6v4H6c-1.104,0-2,0.896-2,2v10c0,1.104,0.896,2,2,2h16
	c1.104,0,2-0.896,2-2v-10C24,152.896,23.104,152,22,152z M9,148c0-2.762,2.238-5,5-5s5,2.238,5,5v4H9V148z M23,164
	c0,0.553-0.447,1-1,1H6c-0.553,0-1-0.447-1-1v-10c0-0.553,0.447-1,1-1h16c0.553,0,1,0.447,1,1V164z"/>
</svg>
